<svg width="226" height="226" viewBox="0 0 226 226" fill="none" xmlns="http://www.w3.org/2000/svg">
<path d="M197.75 14.125H28.2059C20.4371 14.125 14.125 20.5254 14.125 28.3824V197.618C14.125 205.475 20.4371 211.875 28.2059 211.875H197.75C205.519 211.875 211.875 205.475 211.875 197.618V28.3824C211.875 20.5254 205.519 14.125 197.75 14.125ZM73.8914 183.625H44.582V89.2523H73.9355V183.625H73.8914ZM59.2367 76.3633C49.8348 76.3633 42.2426 68.727 42.2426 59.3691C42.2426 50.0113 49.8348 42.375 59.2367 42.375C68.5945 42.375 76.2309 50.0113 76.2309 59.3691C76.2309 68.7711 68.6387 76.3633 59.2367 76.3633ZM183.757 183.625H154.448V137.719C154.448 126.772 154.227 112.691 139.22 112.691C123.947 112.691 121.607 124.609 121.607 136.924V183.625H92.298V89.2523H120.416V102.141H120.813C124.741 94.7258 134.32 86.9129 148.577 86.9129C178.24 86.9129 183.757 106.467 183.757 131.892V183.625Z" fill="black"/>
</svg>
